<svg width="35" height="35" viewBox="0 0 35 35" fill="none" xmlns="http://www.w3.org/2000/svg">
<path d="M17.4999 33.7259C26.3593 33.7259 33.5416 26.5436 33.5416 17.6842C33.5416 8.82484 26.3593 1.64255 17.4999 1.64255M17.4999 33.7259C8.64054 33.7259 1.45825 26.5436 1.45825 17.6842C1.45825 8.82484 8.64054 1.64255 17.4999 1.64255M17.4999 33.7259C21.8749 33.7259 23.3333 26.4342 23.3333 17.6842C23.3333 8.93421 21.8749 1.64255 17.4999 1.64255M17.4999 33.7259C13.1249 33.7259 11.6666 26.4342 11.6666 17.6842C11.6666 8.93421 13.1249 1.64255 17.4999 1.64255M2.91659 23.5175H32.0833M2.91659 11.8509H32.0833" stroke="#3A4D39" stroke-width="2"/>
</svg>
