<svg width="35" height="36" viewBox="0 0 35 36" fill="none" xmlns="http://www.w3.org/2000/svg">
<path d="M25.7497 8.1034C21.1939 3.62195 13.8074 3.62195 9.25159 8.1034C8.16992 9.16016 7.31041 10.4225 6.72359 11.8162C6.13677 13.2099 5.83447 14.7068 5.83447 16.219C5.83447 17.7312 6.13677 19.2282 6.72359 20.6219C7.31041 22.0156 8.16992 23.2779 9.25159 24.3347L17.4999 32.4503L25.7497 24.3347C26.8314 23.2779 27.6909 22.0156 28.2777 20.6219C28.8645 19.2282 29.1668 17.7312 29.1668 16.219C29.1668 14.7068 28.8645 13.2099 28.2777 11.8162C27.6909 10.4225 26.8314 9.16016 25.7497 8.1034ZM17.4999 20.0544C16.5258 20.0544 15.6114 19.6753 14.9216 18.9869C14.2387 18.3026 13.8552 17.3754 13.8552 16.4086C13.8552 15.4419 14.2387 14.5146 14.9216 13.8303C15.6099 13.1419 16.5258 12.7628 17.4999 12.7628C18.4741 12.7628 19.3899 13.1419 20.0783 13.8303C20.7611 14.5146 21.1446 15.4419 21.1446 16.4086C21.1446 17.3754 20.7611 18.3026 20.0783 18.9869C19.3899 19.6753 18.4741 20.0544 17.4999 20.0544Z" fill="#3A4D39"/>
</svg>
