<svg width="64" height="68" viewBox="0 0 64 68" fill="none" xmlns="http://www.w3.org/2000/svg">
<g clip-path="url(#clip0_179_361)">
<path d="M25.1273 22.3245C25.1273 22.3245 25.7684 22.7531 25.7601 23.3331C25.7517 23.9047 24.9441 24.3838 25.3854 25.2915C25.8267 26.1993 26.218 26.401 26.9839 26.7793C27.7499 27.1575 27.7 27.7123 28.3077 27.7375C28.9155 27.7627 30.0312 27.3004 30.3226 28.1998C30.614 29.0991 31.1468 30.755 31.5548 30.9903C31.9627 31.2257 31.7213 31.3686 31.9294 31.8477C32.1376 32.3268 33.0284 32.3772 33.3282 32.9656C33.6279 33.5539 33.4197 34.4449 34.1441 34.8063C34.8684 35.1678 34.8185 34.882 35.3097 35.3106C35.8009 35.7393 36.0507 35.8906 36.3837 35.7813C36.7084 35.6721 37.2163 35.4451 37.5493 35.5964C37.8823 35.7477 38.0072 35.0081 37.5493 34.9156C37.0914 34.8147 36.7833 35.1425 36.5502 34.529C36.3171 33.9154 36.5336 33.5455 35.9341 33.5539C35.3347 33.5623 35.2098 33.1925 35.3846 33.0832C35.5595 32.9656 35.8509 32.5285 35.3347 32.4613C34.8185 32.394 34.6603 32.3856 34.9267 32.2259C35.1931 32.0662 36.1756 31.814 36.4586 30.6625C36.7417 29.511 36.8666 28.2754 36.8666 28.2754C36.8666 28.2754 36.7833 27.6702 36.4004 27.2332C36.0174 26.7961 36.3088 26.4347 36.9915 26.0984C37.6659 25.7538 37.3995 25.4933 37.3995 25.4933C37.3995 25.4933 38.3319 25.7202 37.0331 23.2238C37.0331 23.2238 36.7584 22.854 37.2662 22.0555C37.7741 21.257 36.6252 20.7863 36.2172 21.0469C36.2172 21.0469 35.726 20.6182 35.3347 20.7611C34.9434 20.8956 34.2273 21.4923 33.7528 21.4335C33.2782 21.3831 32.7037 21.4503 32.7037 21.4503C32.7037 21.4503 32.0377 19.5087 30.3892 20.5594C30.3892 20.5594 29.3901 19.4919 28.5825 20.0466C27.7749 20.6014 27.7249 20.7359 27.4835 20.6182C27.242 20.5005 26.6093 19.8365 26.1264 20.3576C25.6435 20.8788 25.9765 21.7193 25.3021 21.9042C24.6361 22.0891 23.9534 22.5934 23.7619 21.9126C23.5787 21.2402 23.254 20.5089 22.3715 21.0553C22.3715 21.0553 22.0884 21.1057 22.2716 20.5678C22.4464 20.0298 21.9885 19.6684 21.797 19.8281C21.6055 19.9878 21.2642 20.8283 20.9728 21.0385C20.6897 21.2402 19.6406 21.6773 19.4242 20.1811C19.2077 18.685 21.6222 16.9871 22.1717 17.4578C22.7212 17.9285 22.6546 18.2983 23.2707 17.9873C23.8868 17.6763 23.0625 16.7518 23.0625 16.7518L24.0283 14.7597C24.0283 14.7597 24.1116 14.5328 24.1116 14.2638C24.1116 14.0032 25.4437 11.8347 25.4603 10.9185C25.4687 10.0023 25.3854 9.54842 26.1097 9.48958C26.8341 9.43075 27.1005 9.34669 27.0089 8.89281C26.9173 8.43892 28.2245 8.91802 28.2661 8.32965C28.3077 7.74128 27.8665 7.32942 27.2004 7.63201C26.5427 7.9262 26.959 6.82511 26.6176 6.83351C26.2763 6.83351 26.1514 7.64882 25.785 7.58999C25.4187 7.53115 25.4187 6.42165 24.6111 6.90075C23.8035 7.37986 23.7536 7.51434 24.0616 8.5566C24.3697 9.59885 23.4788 8.93483 23.2623 9.97709C23.0459 11.0278 22.946 10.5402 22.6379 10.1788C22.3299 9.8258 21.7138 9.79217 21.2558 10.0443C20.7979 10.2881 20.4732 9.37191 21.0061 8.79194C21.5389 8.21198 22.13 7.41348 22.13 7.41348C22.13 7.41348 22.538 7.90939 22.9127 7.48072C23.2873 7.04364 23.1375 6.46368 23.1375 6.46368L23.637 6.23674C23.637 6.23674 23.7369 5.6988 23.8202 5.62315C23.9034 5.5475 24.9525 5.11043 24.9525 5.11043C24.9525 5.11043 25.4603 4.73219 25.1107 5.30375C24.761 5.87531 24.2614 5.76604 24.6611 6.15268C25.0607 6.53933 24.9358 6.26195 25.4687 6.36282C26.0015 6.46368 26.5011 6.05182 26.3512 5.5475C26.3512 5.5475 27.2171 5.3878 27.0922 4.83305C26.959 4.28671 26.5094 4.37076 26.5094 4.37076C26.5094 4.37076 26.0681 3.80761 25.2106 3.81601C24.3447 3.82442 22.5796 4.50525 22.9543 5.43823C23.3289 6.37122 22.3632 6.23674 22.3632 6.23674C22.3632 6.23674 22.6296 5.81647 22.4048 5.30375C22.18 4.79943 20.8146 5.37099 21.0477 5.79966C21.2725 6.22833 21.6888 6.22833 21.3974 6.51411C21.106 6.79989 20.8645 7.09408 20.4649 7.38826C20.0653 7.68245 19.7072 7.20334 19.7072 7.20334C19.7072 7.20334 20.0486 7.04364 20.4399 6.6486C20.8229 6.24514 20.8229 5.63996 20.2151 5.79966C19.6073 5.95936 20.4899 6.16949 19.266 6.72424C19.266 6.72424 19.0911 6.76627 18.7415 6.47208C18.3918 6.1779 17.2428 6.657 17.0763 7.22016C16.9098 7.79172 17.2761 7.9262 17.6508 7.83374C18.0254 7.74128 17.7091 8.22879 18.2586 8.01866C18.8081 7.80853 19.0412 7.74128 18.9829 7.95982C18.9246 8.17836 16.0606 9.01048 15.7608 8.42211C15.7608 8.42211 12.2807 13.7511 13.1965 19.5675C13.1965 19.5675 13.413 19.8113 13.7793 19.6852C14.1373 19.5591 14.3621 19.4583 14.6202 20.1391C14.8866 20.8199 15.5027 22.2152 16.3936 21.8454C17.2845 21.4755 16.4602 21.0553 16.0689 20.8535C15.6776 20.6518 14.9366 19.7356 15.5527 19.6852C16.1688 19.6348 15.5194 20.1223 17.0347 20.9964C18.55 21.8706 17.4177 22.459 18.8414 22.8792C20.2734 23.2995 20.1069 22.0051 20.5981 22.1648C21.081 22.3245 20.9478 22.6943 21.5389 22.4253C22.1384 22.1564 21.7554 22.0639 22.3382 22.4421C22.921 22.8288 23.7536 23.7786 25.1273 22.3665V22.3245Z" fill="#739073"/>
<path d="M25.8432 11.0109C25.8432 11.0109 25.5185 11.4648 25.8682 11.5741C26.2179 11.6833 26.6841 11.2042 25.8432 11.0109Z" fill="#739073"/>
<path d="M25.993 9.80898C25.993 9.80898 25.6933 9.90144 25.8348 10.2208C25.9764 10.5402 26.5509 10.389 26.5675 10.0864C26.5842 9.77536 25.993 9.80898 25.993 9.80898Z" fill="#739073"/>
<path d="M27.0503 9.90143C27.0503 9.90143 27.0004 10.3049 26.7756 10.4814C26.5508 10.6579 26.1928 10.784 26.6424 11.1118C27.092 11.4396 27.2002 10.7504 27.2002 10.7504C27.2002 10.7504 27.9245 10.0023 27.0503 9.90143Z" fill="#739073"/>
<path d="M27.6914 8.89281C27.6914 8.89281 26.8921 9.29627 27.5831 9.6661C27.5831 9.6661 27.8745 9.64929 28.2076 9.72494C28.5406 9.80058 29.1067 9.54842 28.9569 9.1954C28.7987 8.85079 28.449 8.54819 27.6914 8.89281Z" fill="#739073"/>
<path d="M38.0487 8.40529C38.0487 8.40529 36.4335 8.83396 36.5167 9.96868C36.6083 11.1034 36.8664 11.1034 35.834 12.2549C34.8016 13.4064 36.2253 13.5577 36.2253 13.5577C36.2253 13.5577 36.7915 13.5661 36.4918 14.1629C36.192 14.7513 36.5001 15.7179 37.0413 16.0793C37.5824 16.4408 38.9478 17.1552 39.5556 17.0796C40.1551 16.9955 41.6204 16.2979 41.687 15.7767C41.7536 15.2556 41.9618 15.0455 42.5446 15.1631C43.1274 15.2808 44.2014 14.3058 44.268 14.7261C44.3429 15.1463 44.1681 16.2895 45.2171 16.8778C46.2662 17.4662 47.0488 17.9537 46.7824 18.7942C46.5159 19.6348 46.9322 20.2484 47.7898 20.4669C47.7898 20.4669 48.1145 21.879 48.7972 22.1395C49.4799 22.4001 49.8296 23.1146 49.9045 23.5432C49.9795 23.9635 50.0044 23.6861 50.0044 23.6861C50.0044 23.6861 50.2292 24.2745 50.3208 23.8122C50.4207 23.3499 53.1099 14.1209 46.6325 6.01819C46.6325 6.01819 45.2588 7.09407 44.8508 6.74945C44.4345 6.40483 43.86 6.54772 42.9942 7.32101C42.1283 8.0943 42.2615 7.45549 41.8452 7.53114C41.4289 7.60679 41.1042 7.90097 41.1042 7.90097C41.1042 7.90097 40.996 5.52228 38.0487 8.40529Z" fill="#739073"/>
<path d="M37.2245 5.92573C37.2245 5.92573 37.7906 6.43004 37.2745 6.54772C36.7583 6.66539 35.4261 6.95958 36.0089 8.02705C36.5917 9.09452 37.4992 8.49775 38.1736 7.80851C38.848 7.12768 38.6565 5.91732 38.6565 5.91732C38.6565 5.91732 39.7056 5.82486 39.6889 5.11041C39.6889 5.11041 40.6214 5.86689 41.1876 5.69038C41.1876 5.69038 40.7879 6.06021 41.1542 6.46367C41.5206 6.86712 42.7028 5.79965 41.8786 5.11041C41.0543 4.42118 39.7888 5.4046 40.2967 4.42118C40.8046 3.43776 42.0118 4.55566 42.2449 4.90869C42.478 5.26171 42.7112 6.29556 43.2024 5.53908C43.6936 4.78261 42.9027 3.84962 43.4605 4.24467C44.01 4.63972 43.9767 5.49706 44.6511 5.15244C45.3254 4.80782 45.5336 4.75739 45.5336 4.75739C45.5336 4.75739 41.762 1.17674 37.7407 -0.0168152C37.7407 -0.0168152 37.9239 0.319396 37.3577 0.731256C36.7832 1.14312 36.8665 2.09291 37.5492 2.27783C38.2319 2.46275 38.7065 1.83235 38.8896 2.16856C39.0728 2.50477 39.0645 2.73172 38.465 2.81577C37.8656 2.89982 37.5908 3.13517 37.7407 3.63949C37.8906 4.1438 37.8989 4.59769 37.4659 4.63972C37.033 4.68174 36.4336 5.44662 37.2411 5.91732L37.2245 5.92573Z" fill="#739073"/>
<path d="M34.6682 4.15222C34.6682 4.15222 34.2186 4.9255 35.1012 5.13564C35.9837 5.34577 35.3676 4.02614 35.7089 3.95049C36.0503 3.87484 36.2251 4.17743 36.0919 4.38756C35.9587 4.5977 35.8005 5.16926 36.2335 5.04318C36.6664 4.9255 37.6738 4.54726 37.3241 4.01773C36.9745 3.4882 36.5415 3.68992 36.5415 3.68992C36.5415 3.68992 35.8421 3.47139 35.8838 2.88302C35.8838 2.88302 35.6673 2.48797 35.226 2.75694C34.7848 3.03431 35.2593 3.76557 35.1761 3.84122C35.0928 3.91687 34.6682 4.14381 34.6682 4.14381V4.15222Z" fill="#739073"/>
<path d="M61.2443 20.055C61.2443 20.055 61.0195 20.2231 60.8114 20.4249C59.8456 21.3326 58.6633 23.3667 58.2221 24.8544L58.0889 25.2915L58.3053 25.9051C58.8132 27.4012 59.9871 30.7129 60.0204 30.7466C60.0371 30.7634 60.0537 30.7213 60.0537 30.6457C60.0537 30.3011 61.1444 20.9544 61.2693 20.2399C61.286 20.1391 61.2693 20.055 61.2443 20.055Z" fill="#EBE4CE"/>
<path d="M61.0611 33.5959L61.2859 34.3188C61.4191 34.7138 61.5357 35.0332 61.544 35.0164C61.5606 34.9996 61.7438 34.2852 61.9603 33.4194C62.3932 31.6795 62.8012 30.217 63.5255 27.8047C63.7919 26.9305 64.0001 26.1909 64.0001 26.1741C64.0001 26.0312 63.0093 26.3926 62.5347 26.7204C62.1851 26.9558 62.0518 27.1155 61.7938 27.5525L61.4857 28.0905L61.3192 29.5446C61.2276 30.3515 61.136 31.5787 61.1027 32.2931L61.0444 33.5875L61.0611 33.5959Z" fill="#EBE4CE"/>
<path d="M49.0304 54.1889C52.9268 50.5831 54.6086 48.7675 56.0324 46.6326C57.3228 44.7162 57.9889 42.7577 57.9972 40.8413C58.0139 39.1687 57.7475 38.4038 55.4246 33.369C54.0425 30.3767 52.7104 27.5778 52.5688 27.3929C52.4523 27.25 52.4523 27.25 52.2691 27.7543C51.9444 28.6536 51.8695 29.0907 51.8278 30.0573C51.7529 31.8981 52.1026 33.4615 53.3015 36.6891C54.3422 39.4797 54.567 40.5303 54.2839 41.2027C54.0508 41.7491 53.4347 42.2618 50.4458 44.4472C47.5734 46.5401 46.9823 46.9099 45.3754 47.6328C42.1783 49.0701 40.7546 50.1628 39.0395 52.4995C37.3161 54.8529 36.1671 57.9629 35.6509 61.7705C35.4345 63.3591 35.3762 64.2501 35.3345 66.3178C35.3345 66.7548 35.3179 67.0995 35.3096 67.3684C35.4012 67.36 35.4927 67.3432 35.576 67.3348C37.9572 67.007 41.9535 65.9395 44.8759 64.8805C44.8675 64.6199 44.8592 64.2753 44.8509 63.8046C44.7759 60.9048 44.9674 59.5599 45.7084 58.0386C46.2163 56.9879 47.0156 56.0633 49.0304 54.1973V54.1889Z" fill="#EBE4CE"/>
<path d="M55.5412 21.4587C55.4496 21.4587 54.9334 22.9128 54.8002 23.56C54.617 24.4174 54.5088 25.426 54.5088 26.2329C54.5088 26.9978 54.667 28.2586 54.8085 28.6789C54.8668 28.847 54.9334 29.158 54.9584 29.3933C55 29.6959 55.1582 30.1246 55.5995 31.0407C56.7401 33.4278 58.0389 36.2856 58.4219 37.2523C58.9048 38.4878 59.0713 39.1518 59.1795 40.2613L59.2628 41.1607L59.6208 40.5976C60.3035 39.5385 60.6615 38.5803 60.7281 37.5632C60.7947 36.5546 60.6615 36.1007 59.0213 31.4694C58.0139 28.6452 55.8909 22.4926 55.741 21.9714C55.6577 21.6941 55.5662 21.4587 55.5412 21.4587Z" fill="#EBE4CE"/>
<path d="M45.3003 41.665C46.391 39.6562 47.1486 37.5885 47.4317 35.8654C47.5815 34.924 47.7064 33.2933 47.6565 32.8058C47.6398 32.6461 47.5982 32.5117 47.5732 32.5117C47.4733 32.5117 46.749 33.4699 45.983 34.6382C44.5593 36.7984 43.6268 37.9667 41.4621 40.295C39.0393 42.9006 38.3733 43.8252 37.5823 45.6827C36.7497 47.6076 35.9755 50.7175 35.6924 53.2307C35.5592 54.399 35.4759 56.6853 35.5758 56.4835C35.6174 56.4079 35.8422 55.8868 36.0754 55.332C36.9829 53.1551 37.932 51.6925 39.5722 49.9526C40.8044 48.633 42.353 47.6412 45.0255 46.4476C46.1162 45.9685 47.0986 45.3802 48.3225 44.4976C51.2532 42.3795 52.4688 41.4801 52.8184 41.1523C53.2097 40.7993 53.2181 40.7741 53.2097 40.4463C53.2097 40.1353 52.7851 38.5803 52.6686 38.3786C52.6353 38.3281 52.4854 38.429 52.2606 38.6475C50.9868 39.8915 49.5631 40.959 47.6232 42.1189C47.082 42.4383 46.4409 42.8502 46.1911 43.0351C45.65 43.4385 45.4335 43.5142 45.1837 43.4217C44.9506 43.3293 44.7841 42.951 44.8424 42.64C44.859 42.514 45.0672 42.0769 45.292 41.6566L45.3003 41.665Z" fill="#EBE4CE"/>
<path d="M2.7558 19.8617C2.7558 19.8617 2.9806 20.0298 3.18874 20.2315C4.15453 21.1393 5.33678 23.1734 5.77805 24.6611L5.91126 25.0982L5.69479 25.7118C5.18692 27.2079 4.01299 30.5196 3.97969 30.5532C3.96303 30.57 3.94638 30.528 3.94638 30.4524C3.94638 30.1077 2.85571 20.7611 2.73082 20.0466C2.71417 19.9457 2.73082 19.8617 2.7558 19.8617Z" fill="#EBE4CE"/>
<path d="M2.94729 33.4026L2.72249 34.1255C2.58928 34.5205 2.47272 34.8399 2.4644 34.8231C2.44774 34.8063 2.26458 34.0919 2.04811 33.2261C1.61517 31.4862 1.20721 30.0237 0.482868 27.6114C0.216444 26.7372 0.00830078 25.9976 0.00830078 25.9808C0.00830078 25.8379 0.999064 26.1993 1.47363 26.5271C1.82331 26.7625 1.95652 26.9222 2.21462 27.3592L2.52268 27.8972L2.68919 29.3513C2.78077 30.1582 2.87236 31.3854 2.90566 32.0998L2.96394 33.3942L2.94729 33.4026Z" fill="#EBE4CE"/>
<path d="M14.9778 53.9872C11.0813 50.3813 9.39953 48.5658 7.97582 46.4309C6.68533 44.5144 6.01927 42.556 6.01095 40.6396C5.9943 38.9669 6.26072 38.2021 8.5836 33.1673C9.96568 30.175 11.2978 27.376 11.4393 27.1911C11.5559 27.0482 11.5559 27.0482 11.7391 27.5526C12.0638 28.4519 12.1387 28.889 12.1803 29.8556C12.2553 31.6964 11.9056 33.2598 10.7067 36.4874C9.66595 39.2779 9.44116 40.3286 9.72423 41.001C9.95735 41.5474 10.5735 42.0601 13.5624 44.2455C16.4348 46.3384 17.0259 46.7082 18.6328 47.4311C21.8299 48.8684 23.2536 49.9611 24.9687 52.2977C26.6921 54.6512 27.8411 57.7612 28.3572 61.5688C28.5737 63.1574 28.632 64.0483 28.6736 66.1161C28.6736 66.5531 28.6903 66.8977 28.6986 67.1667C28.607 67.1583 28.5154 67.1415 28.4322 67.1331C26.051 66.8053 22.0547 65.7378 19.1323 64.6787C19.1406 64.4182 19.149 64.0736 19.1573 63.6029C19.2322 60.703 19.0407 59.3582 18.2997 57.8368C17.7919 56.7862 16.9926 55.8616 14.9778 53.9956V53.9872Z" fill="#EBE4CE"/>
<path d="M8.46712 21.257C8.5587 21.257 9.0749 22.7111 9.20811 23.3583C9.39127 24.2157 9.49951 25.2243 9.49951 26.0312C9.49951 26.7961 9.34132 28.0569 9.19978 28.4771C9.1415 28.6452 9.07489 28.9562 9.04992 29.1916C9.00829 29.4942 8.8501 29.9228 8.40884 30.839C7.26821 33.2261 5.96939 36.0839 5.58641 37.0505C5.10352 38.2861 4.937 38.9501 4.82877 40.0596L4.74551 40.959L4.3875 40.3958C3.70479 39.3368 3.34678 38.3786 3.28018 37.3615C3.21357 36.3529 3.34678 35.899 4.98695 31.2677C5.99437 28.4435 8.11743 22.2908 8.2673 21.7697C8.35056 21.4923 8.44214 21.257 8.46712 21.257Z" fill="#EBE4CE"/>
<path d="M18.708 41.4633C17.6173 39.4544 16.8597 37.3867 16.5766 35.6637C16.4267 34.7223 16.3018 33.0916 16.3518 32.6041C16.3685 32.4444 16.4101 32.3099 16.4351 32.3099C16.535 32.3099 17.2593 33.2681 18.0253 34.4365C19.449 36.5966 20.3815 37.765 22.5462 40.0932C24.9689 42.6989 25.635 43.6235 26.426 45.481C27.2585 47.4058 28.0328 50.5158 28.3159 53.029C28.4491 54.1973 28.5324 56.4836 28.4325 56.2818C28.3908 56.2062 28.166 55.6851 27.9329 55.1303C27.0254 52.9533 26.0763 51.4908 24.4361 49.7509C23.2039 48.4313 21.6553 47.4395 18.9827 46.2459C17.8921 45.7668 16.9096 45.1784 15.6857 44.2959C12.7551 42.1778 11.5395 41.2784 11.1898 40.9506C10.7985 40.5976 10.7902 40.5723 10.7985 40.2445C10.7985 39.9335 11.2231 38.3786 11.3397 38.1768C11.373 38.1264 11.5229 38.2273 11.7477 38.4458C13.0215 39.6898 14.4452 40.7573 16.3851 41.9172C16.9263 42.2366 17.5674 42.6484 17.8171 42.8334C18.3583 43.2368 18.5748 43.3125 18.8245 43.22C19.0577 43.1275 19.2242 42.7493 19.1659 42.4383C19.1493 42.3122 18.9411 41.8752 18.7163 41.4549L18.708 41.4633Z" fill="#EBE4CE"/>
</g>
<defs>
<clipPath id="clip0_179_361">
<rect width="64" height="67.3684" fill="white"/>
</clipPath>
</defs>
</svg>
