<svg width="35" height="36" viewBox="0 0 35 36" fill="none" xmlns="http://www.w3.org/2000/svg">
<path d="M28.9844 5.83716H6.01562C5.00068 5.83824 4.02761 6.24191 3.30993 6.95959C2.59225 7.67727 2.18859 8.65033 2.1875 9.66528V26.0715C2.18859 27.0865 2.59225 28.0595 3.30993 28.7772C4.02761 29.4949 5.00068 29.8986 6.01562 29.8997H28.9844C29.9993 29.8986 30.9724 29.4949 31.6901 28.7772C32.4077 28.0595 32.8114 27.0865 32.8125 26.0715V9.66528C32.8114 8.65033 32.4077 7.67727 31.6901 6.95959C30.9724 6.24191 29.9993 5.83824 28.9844 5.83716ZM28.015 12.1693L18.1713 19.8255C17.9793 19.9748 17.7431 20.0558 17.5 20.0558C17.2569 20.0558 17.0207 19.9748 16.8287 19.8255L6.98496 12.1693C6.86931 12.0819 6.77216 11.9725 6.69917 11.8473C6.62619 11.7221 6.57881 11.5836 6.5598 11.4399C6.54079 11.2963 6.55052 11.1502 6.58843 11.0104C6.62634 10.8705 6.69168 10.7395 6.78063 10.6251C6.86959 10.5107 6.9804 10.4151 7.10663 10.3439C7.23285 10.2727 7.37197 10.2272 7.5159 10.2102C7.65983 10.1933 7.8057 10.205 7.94503 10.2449C8.08437 10.2848 8.21439 10.352 8.32754 10.4425L17.5 17.5765L26.6725 10.4425C26.9018 10.2693 27.1901 10.1934 27.4751 10.2311C27.76 10.2688 28.0186 10.4171 28.1951 10.644C28.3715 10.8709 28.4515 11.1581 28.4178 11.4436C28.3841 11.729 28.2394 11.9897 28.015 12.1693Z" fill="#3A4D39"/>
</svg>
