<svg width="34" height="35" viewBox="0 0 34 35" fill="none" xmlns="http://www.w3.org/2000/svg">
<rect y="0.86853" width="34" height="33.9997" rx="10" fill="white"/>
<path d="M19.902 10.0564C19.3308 9.95089 18.8061 10.3154 18.6974 10.873C18.5886 11.4307 18.9543 11.9751 19.51 12.0842C21.1831 12.4104 22.475 13.7055 22.8024 15.3843C22.8956 15.8676 23.3211 16.2201 23.8111 16.2201C23.8768 16.2201 23.9425 16.2141 24.0095 16.2021C24.5652 16.0906 24.9309 15.5474 24.8221 14.9886C24.3333 12.4811 22.4033 10.5445 19.902 10.0564Z" fill="#3A4D39"/>
<path d="M19.8273 5.87805C19.5596 5.83967 19.2907 5.91882 19.0768 6.0891C18.8569 6.26178 18.7195 6.5112 18.6896 6.79061C18.6263 7.35542 19.0338 7.86626 19.5978 7.92981C23.4878 8.36391 26.5113 11.3942 26.9487 15.2963C27.0073 15.8191 27.4459 16.2136 27.9693 16.2136C28.0087 16.2136 28.047 16.2112 28.0864 16.2064C28.3601 16.1765 28.6039 16.041 28.776 15.8251C28.9469 15.6093 29.0246 15.3406 28.9935 15.066C28.4485 10.1974 24.6805 6.41887 19.8273 5.87805Z" fill="#3A4D39"/>
<path fill-rule="evenodd" clip-rule="evenodd" d="M15.838 19.0352C20.6248 23.8208 21.7107 18.2845 24.7586 21.3301C27.6969 24.2676 29.3857 24.8562 25.6629 28.5779C25.1965 28.9527 22.2337 33.4613 11.8214 23.0519C1.40787 12.6413 5.91389 9.67542 6.28875 9.20923C10.0206 5.47714 10.599 7.17577 13.5373 10.1133C16.5851 13.1602 11.0511 14.2497 15.838 19.0352Z" fill="#3A4D39"/>
</svg>
